<?xml version="1.0" encoding="UTF-8"?>
<svg version="1.1" xmlns="http://www.w3.org/2000/svg" width="458" height="259">
<path d="M0 0 C151.14 0 302.28 0 458 0 C458 85.47 458 170.94 458 259 C306.86 259 155.72 259 0 259 C0 173.53 0 88.06 0 0 Z " fill="#13161E" transform="translate(0,0)"/>
<path d="M0 0 C4.28511755 3.27996652 6.74117958 6.89072878 7.4609375 12.2578125 C7.74877864 18.38604316 6.80964004 21.97947571 3.14453125 26.8984375 C-3.00628451 33.04925326 -8.30873373 33.99178698 -16.66796875 34.3359375 C-23.41454626 34.23534955 -28.36770325 32.8504878 -33.85546875 28.8984375 C-38.45954781 24.06976922 -39.09713502 20.97007693 -39.00390625 14.5 C-38.71771383 9.48410121 -37.80126966 6.05441639 -34.60546875 2.1484375 C-24.76223172 -5.90512007 -10.96562828 -6.51012037 0 0 Z " fill="#F3F4F4" transform="translate(316.85546875,118.1015625)"/>
<path d="M0 0 C3.63 0 7.26 0 11 0 C16.39274323 9.84207511 21.38712283 19.76940303 25.90405273 30.04589844 C27.60082388 33.90602329 29.3375169 37.71193185 31.26171875 41.46484375 C33 45 33 45 33 47 C29.37 47 25.74 47 22 47 C18 39.25 18 39.25 18 37 C10.08 37.33 2.16 37.66 -6 38 C-7.32 40.97 -8.64 43.94 -10 47 C-13.63 47 -17.26 47 -21 47 C-20.27528579 43.37642895 -19.77729881 41.17049116 -18.26586914 38.00756836 C-17.73510521 36.88631813 -17.73510521 36.88631813 -17.19361877 35.74241638 C-16.62017982 34.55314293 -16.62017982 34.55314293 -16.03515625 33.33984375 C-15.64178574 32.51295547 -15.24841522 31.6860672 -14.84312439 30.8341217 C-13.58814774 28.19938119 -12.32540348 25.56844867 -11.0625 22.9375 C-10.2162919 21.16365226 -9.37058326 19.38956618 -8.52539062 17.61523438 C-2.70039876 5.40079752 -2.70039876 5.40079752 0 0 Z " fill="#F5F5F5" transform="translate(110,104)"/>
<path d="M0 0 C2.89755718 2.64860239 4.74483651 5.23450954 6 9 C6 11.64 6 14.28 6 17 C-5.22 17 -16.44 17 -28 17 C-24.66666667 22.83333333 -24.66666667 22.83333333 -21 25 C-15.79867049 25.63719991 -10.6545385 26.26060076 -6.375 23 C-5.59125 22.34 -4.8075 21.68 -4 21 C-0.64150403 20.64482469 2.63547572 20.76480995 6 21 C4.72485298 26.48313219 2.60004976 28.81535017 -2 32 C-9.53806507 35.04707701 -18.7986845 35.41522672 -26.5625 32.8125 C-30.15326877 30.91918556 -32.37392338 29.07626118 -35 26 C-35.53109375 25.41863281 -36.0621875 24.83726562 -36.609375 24.23828125 C-39.41150698 19.72810814 -38.57256046 14.10851169 -38 9 C-35.34637122 3.39789479 -30.80214574 -0.71430622 -25 -3 C-16.21481622 -5.09171042 -7.73531603 -4.98904999 0 0 Z " fill="#F4F4F5" transform="translate(221,118)"/>
<path d="M0 0 C3.7857409 2.14287221 6.45714087 3.92063525 8.3125 7.875 C8.92951644 12.68071751 8.78260628 17.41512416 8.625 22.25 C8.60244141 23.55839844 8.57988281 24.86679688 8.55664062 26.21484375 C8.49785914 29.43606887 8.41572731 32.6549432 8.3125 35.875 C5.0125 35.875 1.7125 35.875 -1.6875 35.875 C-1.69160889 35.13338623 -1.69571777 34.39177246 -1.69995117 33.62768555 C-1.73281841 30.2718092 -1.80345525 26.91776512 -1.875 23.5625 C-1.88080078 22.39525391 -1.88660156 21.22800781 -1.89257812 20.02539062 C-1.92158203 18.90712891 -1.95058594 17.78886719 -1.98046875 16.63671875 C-1.9961792 15.60506592 -2.01188965 14.57341309 -2.02807617 13.51049805 C-2.45084875 10.66075412 -2.45084875 10.66075412 -5.09130859 9.03051758 C-7.8016712 7.82418447 -9.21069934 7.54253076 -12.125 7.875 C-12.84558594 7.936875 -13.56617188 7.99875 -14.30859375 8.0625 C-17.88517606 9.28405849 -20.54241173 10.76545015 -22.6875 13.875 C-23.55884563 17.64573983 -23.57237303 21.32961243 -23.5625 25.1875 C-23.583125 26.21423828 -23.60375 27.24097656 -23.625 28.29882812 C-23.67197748 30.82386772 -23.68324478 33.34952703 -23.6875 35.875 C-26.9875 35.875 -30.2875 35.875 -33.6875 35.875 C-33.6875 23.995 -33.6875 12.115 -33.6875 -0.125 C-30.3875 -0.125 -27.0875 -0.125 -23.6875 -0.125 C-23.3575 2.185 -23.0275 4.495 -22.6875 6.875 C-21.98625 6.111875 -21.285 5.34875 -20.5625 4.5625 C-14.18626885 -1.39788999 -8.18767417 -2.49793449 0 0 Z " fill="#F4F4F4" transform="translate(264.6875,115.125)"/>
<path d="M0 0 C3.63 0 7.26 0 11 0 C14.3 7.59 17.6 15.18 21 23 C22.0725 20.69 23.145 18.38 24.25 16 C26.7526119 10.62365321 29.30455775 5.28306682 32 0 C35.63 0 39.26 0 43 0 C38.16973589 12.49151083 32.41228583 24.24629298 26 36 C22.7 36 19.4 36 16 36 C15.46375 34.741875 14.9275 33.48375 14.375 32.1875 C12.75840944 28.53010717 10.95681728 25.04901201 9 21.5625 C5.17548966 14.66679196 2.37278 7.51380334 0 0 Z " fill="#F4F5F5" transform="translate(140,115)"/>
<path d="M0 0 C0 2.97 0 5.94 0 9 C-3.3203125 9.9765625 -3.3203125 9.9765625 -6.640625 10.953125 C-9.72935955 12.32362311 -11.06727386 13.16993672 -13 16 C-13.63250003 19.57705439 -13.69688509 23.12370026 -13.75 26.75 C-13.77964844 27.73355469 -13.80929687 28.71710938 -13.83984375 29.73046875 C-13.91040892 32.1532064 -13.95748435 34.57660783 -14 37 C-17.3 37 -20.6 37 -24 37 C-24 25.12 -24 13.24 -24 1 C-20.7 1 -17.4 1 -14 1 C-13.67 2.98 -13.34 4.96 -13 7 C-12.60167969 6.57847656 -12.20335937 6.15695313 -11.79296875 5.72265625 C-11.26316406 5.17480469 -10.73335938 4.62695312 -10.1875 4.0625 C-9.66542969 3.51722656 -9.14335937 2.97195312 -8.60546875 2.41015625 C-5.80157995 -0.05262686 -3.70124784 0 0 0 Z " fill="#F4F4F4" transform="translate(352,114)"/>
<path d="M0 0 C2.9375 1.3125 2.9375 1.3125 5 3 C5.52722656 3.42925781 6.05445313 3.85851562 6.59765625 4.30078125 C8.94855833 7.14936733 8.52318152 9.9928145 8.4296875 13.55078125 C7.7817899 17.24379756 5.94367789 18.82728537 3 21 C0.426671 22.2866645 -1.50223038 22.16824551 -4.375 22.1875 C-5.80972656 22.20876953 -5.80972656 22.20876953 -7.2734375 22.23046875 C-11.18107347 21.90016714 -13.22148692 20.91753328 -15.75 17.9375 C-17.4941863 13.83866218 -18.04312547 10.37192292 -17 6 C-12.9665115 -0.3346454 -7.00849868 -1.21369587 0 0 Z " fill="#161920" transform="translate(305,122)"/>
<path d="M0 0 C5.34957206 4.61170005 6.81271959 10.43815876 9 17 C3.72 17 -1.56 17 -7 17 C-5.11994266 10.98381653 -2.93937169 5.57467045 0 0 Z " fill="#20232A" transform="translate(115,116)"/>
<path d="M0 0 C4.30776883 1.79490368 4.84546881 2.69093762 7 7 C-0.59 7 -8.18 7 -16 7 C-12.25244481 -0.49511038 -7.85417737 -0.9419921 0 0 Z " fill="#171A22" transform="translate(210,122)"/>
<path d="M0 0 C0.66 0.33 1.32 0.66 2 1 C-0.64 3.64 -3.28 6.28 -6 9 C-6 6 -6 6 -3.5625 3.375 C-2.716875 2.59125 -1.87125 1.8075 -1 1 C-0.67 0.67 -0.34 0.34 0 0 Z " fill="#D6D6D8" transform="translate(286,117)"/>
<path d="M0 0 C0.66 0.33 1.32 0.66 2 1 C-0.31 3.31 -2.62 5.62 -5 8 C-5.33 7.34 -5.66 6.68 -6 6 C-4 4 -2 2 0 0 Z " fill="#DDDDDF" transform="translate(248,116)"/>
</svg>
